<svg width="24" height="24" viewBox="0 0 24 24" fill="none" xmlns="http://www.w3.org/2000/svg">
<g clip-path="url(#clip0_91_598)">
<path d="M11.7853 12.7474C14.8932 12.7474 17.4126 10.2279 17.4126 7.12001C17.4126 4.01212 14.8932 1.49268 11.7853 1.49268C8.6774 1.49268 6.15796 4.01212 6.15796 7.12001C6.15796 10.2279 8.6774 12.7474 11.7853 12.7474Z" stroke="white" stroke-width="3.00352" stroke-miterlimit="10"/>
<path d="M1.47339 23.0593L1.83676 21.0461C2.26603 18.7209 3.49622 16.6197 5.31364 15.1072C7.13105 13.5948 9.42086 12.7668 11.7853 12.7671C14.1525 12.7677 16.4445 13.5984 18.2623 15.1148C20.0802 16.6311 21.3086 18.737 21.7338 21.0657L22.0971 23.079" stroke="white" stroke-width="3.00352" stroke-miterlimit="10"/>
</g>
<defs>
<clipPath id="clip0_91_598">
<rect width="23.57" height="23.57" fill="white"/>
</clipPath>
</defs>
</svg>
