<svg width="27" height="47" viewBox="0 0 27 47" fill="none" xmlns="http://www.w3.org/2000/svg">
<path d="M0.812043 37.5916H4.28828C4.73598 37.5916 5.09934 37.1793 5.09934 36.6694V29.9244C5.09934 29.4144 4.73598 29.0022 4.28828 29.0022H0.812043C0.364334 29.0022 0.000976562 29.4144 0.000976562 29.9244V36.6694C0.000976562 37.1784 0.364334 37.5916 0.812043 37.5916ZM1.62311 30.8457H3.47721V35.7462H1.62311V30.8457Z" fill="white"/>
<path d="M11.2399 37.5915C11.6876 37.5915 12.051 37.1793 12.051 36.6693V17.6351C12.051 17.1251 11.6876 16.7129 11.2399 16.7129H7.7637C7.31599 16.7129 6.95264 17.1251 6.95264 17.6351V36.6693C6.95264 37.1793 7.31599 37.5915 7.7637 37.5915H11.2399ZM8.57477 19.4843C8.57477 18.9723 8.98982 18.5573 9.50182 18.5573C10.0138 18.5573 10.4289 18.9723 10.4289 19.4843V34.82C10.4289 35.332 10.0138 35.7471 9.50182 35.7471C8.98982 35.7471 8.57477 35.332 8.57477 34.82V19.4843Z" fill="white"/>
<path d="M18.1918 37.5916C18.6395 37.5916 19.0028 37.1794 19.0028 36.6694V23.9403C19.0028 23.4303 18.6395 23.0181 18.1918 23.0181H14.7163C14.2686 23.0181 13.9053 23.4303 13.9053 23.9403V36.6694C13.9053 37.1794 14.2686 37.5916 14.7163 37.5916H18.1918ZM15.5274 24.8625H17.3815V35.7472H15.5274V24.8625Z" fill="white"/>
<path d="M20.8569 9.0035V36.6695C20.8569 37.1795 21.2203 37.5917 21.668 37.5917H25.1442C25.5919 37.5917 25.9553 37.1795 25.9553 36.6695V9.0035C25.9553 8.49352 25.5919 8.0813 25.1442 8.0813H21.668C21.2203 8.0813 20.8569 8.49352 20.8569 9.0035ZM22.4791 9.9257H24.3332V35.7473H22.4791V9.9257Z" fill="white"/>
</svg>
