<svg width="28" height="28" viewBox="0 0 28 28" fill="none" xmlns="http://www.w3.org/2000/svg">
<g clip-path="url(#clip0_91_584)">
<path d="M11.1998 19.5999C11.1998 20.4306 10.9535 21.2426 10.492 21.9333C10.0305 22.624 9.37453 23.1623 8.60708 23.4802C7.83963 23.7981 6.99515 23.8813 6.18043 23.7192C5.36571 23.5571 4.61734 23.1571 4.02996 22.5698C3.44258 21.9824 3.04257 21.234 2.88051 20.4193C2.71845 19.6046 2.80162 18.7601 3.11951 17.9926C3.4374 17.2252 3.97572 16.5692 4.66641 16.1077C5.3571 15.6462 6.16913 15.3999 6.99981 15.3999C8.11372 15.3999 9.182 15.8424 9.96966 16.6301C10.7573 17.4177 11.1998 18.486 11.1998 19.5999ZM20.9998 15.3999C20.1691 15.3999 19.3571 15.6462 18.6664 16.1077C17.9757 16.5692 17.4374 17.2252 17.1195 17.9926C16.8016 18.7601 16.7185 19.6046 16.8805 20.4193C17.0426 21.234 17.4426 21.9824 18.03 22.5698C18.6173 23.1571 19.3657 23.5571 20.1804 23.7192C20.9951 23.8813 21.8396 23.7981 22.6071 23.4802C23.3745 23.1623 24.0305 22.624 24.492 21.9333C24.9535 21.2426 25.1998 20.4306 25.1998 19.5999C25.1998 18.486 24.7573 17.4177 23.9697 16.6301C23.182 15.8424 22.1137 15.3999 20.9998 15.3999Z" stroke="white" stroke-width="3" stroke-linecap="round" stroke-linejoin="round"/>
<path d="M6.9999 4.19995V16.8M20.9999 4.19995V16.8M1.3999 4.19995H26.5999" stroke="white" stroke-width="3" stroke-linecap="round" stroke-linejoin="round"/>
</g>
<defs>
<clipPath id="clip0_91_584">
<rect width="28" height="28" fill="white"/>
</clipPath>
</defs>
</svg>
